<svg xmlns="http://www.w3.org/2000/svg" viewBox="0 0 167.15 65.97"><defs><style>.cls-1{fill:#fff;}</style></defs><g id="Capa_2" data-name="Capa 2"><g id="Capa_1-2" data-name="Capa 1"><polygon class="cls-1" points="0 65.97 32.35 48.94 55.57 16.59 75.69 16.59 63.86 32.35 95.38 15.76 87.08 0 47.27 0.83 0 65.97"/><path class="cls-1" d="M61.46,59.63l-1.65-5.38H52l-1.68,5.38H43.26l9.38-25.77h6.5l9.31,25.77Zm-2.59-10.2L56.3,42.59l-2.63,6.84Z"/><path class="cls-1" d="M81.76,59.66,77.3,52.15H75.87v7.51H69v-26H79.38a11.44,11.44,0,0,1,4.24.7,7.29,7.29,0,0,1,3,1.89,7.72,7.72,0,0,1,1.7,2.89,11.47,11.47,0,0,1,.58,3.77,9.19,9.19,0,0,1-1,4.48,6.7,6.7,0,0,1-3,3l-.4.24,5.52,9ZM75.72,45h2.07a3.94,3.94,0,0,0,2-.53,2.11,2.11,0,0,0,.9-2,2.39,2.39,0,0,0-.64-1.77A3.25,3.25,0,0,0,77.79,40H75.72Z"/><path class="cls-1" d="M108.75,59.63l-1.65-5.38H99.29l-1.68,5.38H90.55l9.38-25.77h6.5l9.31,25.77Zm-2.59-10.2-2.57-6.84L101,49.43Z"/><path class="cls-1" d="M116,59.63v-26h7.69V52.51h9.68v7.12Z"/><path class="cls-1" d="M134.27,59.63V33.58h7.36V59.63Z"/><path class="cls-1" d="M158.39,59.63,154,51.57l-4.42,8.06H141l8.12-12.7-7.75-13.28H150l4.16,7.78,4.21-7.78h8.09L159,46.89l8.12,12.74Z"/></g></g></svg>